<svg xmlns="http://www.w3.org/2000/svg" viewBox="0 0 99.13 56.58" id="truck"><g data-name="Layer 2"><g data-name="Layer 1"><g opacity=".1"><path fill="#4b4868" d="M23.65 4.15a10 10 0 00-8 9.8V44a2 2 0 002 2h38v-7.92h-12a20 20 0 01-20-20zM60.63 38.08V46h33a4 4 0 004-4v-3.92z"></path></g><path fill="#ffc599" d="M77.71 24.08h-8.06a1 1 0 0 1-1-1v-5a1 1 0 0 1 1-1h4.49a1 1 0 0 1 .81.42l3.57 5a1 1 0 0 1-.81 1.58z"></path><path fill="none" stroke="#ffc599" stroke-linecap="round" stroke-linejoin="round" stroke-width="3" d="M16.15 30.54h14M35.15 30.54h1"></path><path fill="none" stroke="#4b4668" stroke-linecap="round" stroke-linejoin="round" stroke-width="3" d="M83.13 24l-6.9-9.2a2 2 0 0 0-1.6-.8h-12a2 2 0 0 0-2 2v30h33a4 4 0 0 0 4-4V30a4 4 0 0 0-4-4h-6.5a5 5 0 0 1-4-2z"></path><circle cx="79.13" cy="46.08" r="9" fill="#fff" stroke="#4b4668" stroke-linecap="round" stroke-linejoin="round" stroke-width="3"></circle><path fill="none" stroke="#4b4668" stroke-linecap="round" stroke-linejoin="round" stroke-width="3" d="M66.15 30.54h4M57.4 55.08h35.43M21.05 55.08h29.38M16.15 55.08h.82M75.21 26.08h-8.06a1 1 0 01-1-1v-5a1 1 0 011-1h4.49a1 1 0 01.81.42l3.57 5a1 1 0 01-.81 1.58zM10.15 34.58h5M13.15 37.08h2M6.15 34.58"></path><g opacity=".2"><path fill="none" stroke="#4b4668" stroke-linecap="round" stroke-linejoin="round" stroke-width="3" d="M64.24 1.5v5M66.74 4h-5"></path></g><g opacity=".2"><path fill="none" stroke="#4b4668" stroke-linecap="round" stroke-linejoin="round" stroke-width="3" d="M4 21.99v5M6.5 24.49h-5"></path></g><circle cx="88.65" cy="17.08" r="2.5" fill="none" stroke="#ffc599" stroke-linecap="round" stroke-linejoin="round" stroke-width="3" opacity=".5"></circle><path fill="none" stroke="#4b4668" stroke-linecap="round" stroke-linejoin="round" stroke-width="3" d="M15.63 14v30a2 2 0 0 0 2 2h38V6a2 2 0 0 0-2-2h-28a10 10 0 0 0-10 10z"></path><circle cx="35.63" cy="46.08" r="9" fill="#fff" stroke="#4b4668" stroke-linecap="round" stroke-linejoin="round" stroke-width="3"></circle></g></g></svg>